<svg width="523" height="690" viewBox="0 0 523 690" fill="none" xmlns="http://www.w3.org/2000/svg">
<path d="M112.5 251C174.632 251 225 301.368 225 363.5C225 425.632 174.632 476 112.5 476C50.368 476 1.54726e-05 425.632 0 363.5C0 301.368 50.3679 251 112.5 251ZM110.622 391.656C80.6275 391.656 56.3117 409.08 56.3115 430.574C56.3115 452.068 80.6274 469.493 110.622 469.493C140.617 469.493 164.933 452.068 164.933 430.574C164.932 409.08 140.617 391.656 110.622 391.656ZM181.577 308.066C161.189 308.067 144.661 331.094 144.661 359.499C144.661 387.904 161.189 410.931 181.577 410.931C201.965 410.931 218.493 387.904 218.493 359.499C218.493 331.094 201.965 308.066 181.577 308.066ZM134.112 272.981C112.473 250.626 69.5899 257.032 38.332 287.289C7.07458 317.546 -0.722246 360.196 20.917 382.552C42.5567 404.907 85.4384 398.501 116.696 368.244C147.954 337.987 155.752 295.337 134.112 272.981Z" fill="#E6E6E6"/>
<path d="M266.5 495C306.541 495 339 527.459 339 567.5C339 607.541 306.541 640 266.5 640C226.459 640 194 607.541 194 567.5C194 527.459 226.459 495 266.5 495ZM265.29 585.646C245.96 585.646 230.29 596.874 230.29 610.726C230.29 624.577 245.96 635.807 265.29 635.807C284.62 635.807 300.29 624.577 300.29 610.726C300.29 596.874 284.62 585.646 265.29 585.646ZM311.017 531.776C297.878 531.776 287.227 546.616 287.227 564.921C287.227 583.226 297.878 598.066 311.017 598.066C324.156 598.066 334.807 583.226 334.807 564.921C334.806 546.616 324.155 531.776 311.017 531.776ZM280.428 509.165C266.482 494.759 238.847 498.887 218.703 518.386C198.559 537.885 193.534 565.372 207.479 579.778C221.425 594.185 249.06 590.057 269.204 570.558C289.348 551.059 294.373 523.572 280.428 509.165Z" fill="#E6E6E6"/>
<path d="M87 492C106.882 492 123 508.118 123 528C123 547.882 106.882 564 87 564C67.1178 564 51.0001 547.882 51 528C51 508.118 67.1177 492 87 492ZM86.3994 537.01C76.8012 537.01 69.0197 542.586 69.0195 549.464C69.0195 556.342 76.8011 561.918 86.3994 561.918C95.9977 561.918 103.778 556.342 103.778 549.464C103.778 542.586 95.9976 537.01 86.3994 537.01ZM109.104 510.262C102.58 510.262 97.292 517.63 97.292 526.72C97.292 535.809 102.58 543.178 109.104 543.178C115.629 543.178 120.918 535.809 120.918 526.72C120.918 517.63 115.629 510.262 109.104 510.262ZM93.916 499.034C86.9914 491.881 73.2691 493.93 63.2666 503.612C53.2641 513.295 50.7688 526.943 57.6934 534.097C64.618 541.25 78.3403 539.201 88.3428 529.519C98.3452 519.836 100.84 506.188 93.916 499.034Z" fill="#E6E6E6"/>
<path d="M123 618C142.882 618 159 634.118 159 654C159 673.882 142.882 690 123 690C103.118 690 87.0001 673.882 87 654C87 634.118 103.118 618 123 618ZM122.399 663.01C112.801 663.01 105.02 668.586 105.02 675.464C105.02 682.342 112.801 687.918 122.399 687.918C131.998 687.918 139.778 682.342 139.778 675.464C139.778 668.586 131.998 663.01 122.399 663.01ZM145.104 636.262C138.58 636.262 133.292 643.63 133.292 652.72C133.292 661.809 138.58 669.178 145.104 669.178C151.629 669.178 156.918 661.809 156.918 652.72C156.918 643.63 151.629 636.262 145.104 636.262ZM129.916 625.034C122.991 617.881 109.269 619.93 99.2666 629.612C89.2641 639.295 86.7688 652.943 93.6934 660.097C100.618 667.25 114.34 665.201 124.343 655.519C134.345 645.836 136.84 632.188 129.916 625.034Z" fill="#E6E6E6"/>
<path d="M57 112C76.8823 112 93 128.118 93 148C92.9999 167.882 76.8822 184 57 184C37.1178 184 21.0001 167.882 21 148C21 128.118 37.1177 112 57 112ZM56.3994 157.01C46.8012 157.01 39.0197 162.586 39.0195 169.464C39.0195 176.342 46.8011 181.918 56.3994 181.918C65.9977 181.918 73.7783 176.342 73.7783 169.464C73.7782 162.586 65.9976 157.01 56.3994 157.01ZM79.1045 130.262C72.5804 130.262 67.292 137.63 67.292 146.72C67.292 155.809 72.5804 163.178 79.1045 163.178C85.6287 163.178 90.918 155.809 90.918 146.72C90.918 137.63 85.6287 130.262 79.1045 130.262ZM63.916 119.034C56.9914 111.881 43.2691 113.93 33.2666 123.612C23.2641 133.295 20.7688 146.943 27.6934 154.097C34.618 161.25 48.3403 159.201 58.3428 149.519C68.3452 139.836 70.8405 126.188 63.916 119.034Z" fill="white"/>
<path d="M397 0C416.882 0 433 16.1177 433 36C433 55.8822 416.882 72 397 72C377.118 72 361 55.8822 361 36C361 16.1177 377.118 3.505e-05 397 0ZM396.399 45.0098C386.801 45.0098 379.02 50.5859 379.02 57.4639C379.02 64.3419 386.801 69.918 396.399 69.918C405.998 69.9179 413.778 64.3419 413.778 57.4639C413.778 50.5859 405.998 45.0099 396.399 45.0098ZM419.104 18.2617C412.58 18.2619 407.292 25.6302 407.292 34.7197C407.292 43.8093 412.58 51.1776 419.104 51.1777C425.629 51.1777 430.918 43.8094 430.918 34.7197C430.918 25.6301 425.629 18.2617 419.104 18.2617ZM403.916 7.03418C396.991 -0.119485 383.269 1.93014 373.267 11.6123C363.264 21.2946 360.769 34.9429 367.693 42.0967C374.618 49.2503 388.34 47.2007 398.343 37.5186C408.345 27.8363 410.84 14.1879 403.916 7.03418Z" fill="white"/>
<path d="M452.5 366C491.436 366 523 397.564 523 436.5C523 475.436 491.436 507 452.5 507C413.564 507 382 475.436 382 436.5C382 397.564 413.564 366 452.5 366ZM451.323 454.145C432.527 454.145 417.289 465.064 417.289 478.533C417.289 492.003 432.527 502.922 451.323 502.922C470.12 502.922 485.357 492.003 485.357 478.533C485.357 465.064 470.12 454.145 451.323 454.145ZM495.788 401.762C483.012 401.762 472.654 416.192 472.654 433.992C472.654 451.793 483.012 466.223 495.788 466.224C508.565 466.224 518.923 451.793 518.923 433.992C518.923 416.192 508.565 401.762 495.788 401.762ZM466.044 379.774C452.483 365.765 425.61 369.78 406.021 388.741C386.433 407.702 381.548 434.43 395.108 448.439C408.669 462.448 435.542 458.434 455.13 439.473C474.718 420.512 479.605 393.784 466.044 379.774Z" fill="#A4A4A4"/>
<path d="M183.5 170C222.436 170 254 201.564 254 240.5C254 279.436 222.436 311 183.5 311C144.564 311 113 279.436 113 240.5C113 201.564 144.564 170 183.5 170ZM182.323 258.145C163.527 258.145 148.289 269.064 148.289 282.533C148.289 296.003 163.527 306.922 182.323 306.922C201.12 306.922 216.357 296.003 216.357 282.533C216.357 269.064 201.12 258.145 182.323 258.145ZM226.788 205.762C214.012 205.762 203.654 220.192 203.654 237.992C203.654 255.793 214.012 270.223 226.788 270.224C239.565 270.224 249.923 255.793 249.923 237.992C249.923 220.192 239.565 205.762 226.788 205.762ZM197.044 183.774C183.483 169.765 156.61 173.78 137.021 192.741C117.433 211.702 112.548 238.43 126.108 252.439C139.669 266.448 166.542 262.434 186.13 243.473C205.718 224.512 210.605 197.784 197.044 183.774Z" fill="#A4A4A4"/>
<path d="M340.5 127.456C391.586 127.456 432.999 168.87 432.999 219.956C432.999 271.042 391.586 312.456 340.5 312.456C289.414 312.456 248 271.042 248 219.956C248 168.87 289.414 127.456 340.5 127.456ZM338.956 243.107C314.294 243.107 294.301 257.435 294.301 275.107C294.301 292.78 314.294 307.106 338.956 307.106C363.618 307.106 383.61 292.78 383.61 275.107C383.61 257.435 363.618 243.108 338.956 243.107ZM397.296 174.378C380.532 174.378 366.943 193.311 366.943 216.666C366.943 240.021 380.532 258.954 397.296 258.954C414.059 258.954 427.649 240.021 427.649 216.666C427.649 193.311 414.059 174.378 397.296 174.378ZM358.27 145.529C340.477 127.148 305.218 132.415 279.518 157.293C253.817 182.171 247.406 217.239 265.198 235.62C282.991 254.001 318.249 248.734 343.95 223.856C369.651 198.979 376.062 163.91 358.27 145.529Z" fill="#636363"/>
<path d="M382.5 469C433.586 469 474.999 510.414 474.999 561.5C474.999 612.586 433.586 654 382.5 654C331.414 654 290 612.586 290 561.5C290 510.414 331.414 469 382.5 469ZM380.956 584.651C356.294 584.651 336.301 598.979 336.301 616.651C336.301 634.324 356.294 648.65 380.956 648.65C405.618 648.65 425.61 634.324 425.61 616.651C425.61 598.979 405.618 584.651 380.956 584.651ZM439.296 515.922C422.532 515.922 408.943 534.855 408.943 558.21C408.943 581.565 422.532 600.498 439.296 600.498C456.059 600.498 469.649 581.565 469.649 558.21C469.649 534.855 456.059 515.922 439.296 515.922ZM400.27 487.073C382.477 468.692 347.218 473.959 321.518 498.837C295.817 523.715 289.406 558.783 307.198 577.164C324.991 595.545 360.249 590.278 385.95 565.4C411.651 540.522 418.062 505.454 400.27 487.073Z" fill="#636363"/>
<path d="M194 476C217.196 476 236 494.804 236 518C236 541.196 217.196 560 194 560C170.804 560 152 541.196 152 518C152 494.804 170.804 476 194 476ZM193.299 528.512C182.101 528.512 173.023 535.018 173.023 543.042C173.024 551.066 182.101 557.571 193.299 557.571C204.497 557.571 213.575 551.066 213.575 543.042C213.575 535.018 204.497 528.512 193.299 528.512ZM219.789 497.305C212.178 497.305 206.007 505.901 206.007 516.506C206.007 527.11 212.177 535.708 219.789 535.708C227.401 535.708 233.571 527.11 233.571 516.506C233.571 505.902 227.4 497.305 219.789 497.305ZM202.068 484.206C193.99 475.86 177.98 478.252 166.311 489.548C154.641 500.844 151.73 516.766 159.809 525.112C167.887 533.458 183.897 531.067 195.566 519.771C207.236 508.475 210.147 492.552 202.068 484.206Z" fill="#A4A4A4"/>
<path d="M113.228 358C147.595 358 175.456 385.86 175.456 420.228C175.456 454.595 147.595 482.455 113.228 482.455C78.8602 482.455 51 454.595 51 420.228C51 385.86 78.8602 358 113.228 358ZM112.189 435.803C95.5984 435.803 82.1486 445.441 82.1484 457.33C82.1484 469.219 95.5983 478.857 112.189 478.857C128.781 478.857 142.23 469.219 142.23 457.33C142.23 445.441 128.78 435.803 112.189 435.803ZM151.437 389.565C140.159 389.566 131.018 402.303 131.018 418.015C131.018 433.726 140.159 446.463 151.437 446.463C162.714 446.463 171.856 433.726 171.856 418.015C171.856 402.303 162.714 389.565 151.437 389.565ZM125.182 370.158C113.212 357.793 89.4929 361.336 72.2031 378.072C54.9133 394.809 50.6006 418.4 62.5703 430.766C74.54 443.131 98.2591 439.588 115.549 422.852C132.839 406.115 137.151 382.524 125.182 370.158Z" fill="#636363"/>
<path d="M289.899 240C366.059 240 427.8 301.74 427.8 377.9C427.8 454.06 366.059 515.8 289.899 515.8C213.74 515.8 152 454.06 152 377.9C152 301.741 213.74 240 289.899 240ZM287.599 412.417C250.832 412.417 221.025 433.775 221.025 460.122C221.026 486.469 250.832 507.827 287.599 507.827C324.365 507.827 354.171 486.469 354.171 460.122C354.171 433.775 324.365 412.417 287.599 412.417ZM374.573 309.949C349.582 309.949 329.322 338.176 329.322 372.994C329.322 407.812 349.582 436.038 374.573 436.038C399.564 436.038 419.823 407.812 419.823 372.994C419.823 338.176 399.564 309.95 374.573 309.949ZM316.391 266.944C289.865 239.542 237.301 247.393 198.986 284.481C160.671 321.57 151.114 373.851 177.64 401.254C204.165 428.656 256.729 420.804 295.044 383.716C333.359 346.627 342.916 294.347 316.391 266.944Z" fill="black"/>
</svg>
