<svg width="15" height="15" viewBox="0 0 15 15" fill="none" xmlns="http://www.w3.org/2000/svg">
<g filter="url(#filter0_i_2011_25752)">
<path d="M8.20124 6.38389C8.56711 6.1449 9.07142 6.31101 8.86143 6.60135L8.68549 6.84491C8.50894 7.08935 8.56204 7.33908 8.82008 7.47712L9.08825 7.62043C9.39311 7.78361 9.01102 8.16631 8.58515 8.12415L8.14226 8.08036C7.81733 8.04813 7.44092 8.14036 7.16079 8.32036L6.74084 8.59036C6.37262 8.82712 5.87309 8.65786 6.08584 8.3684L6.25568 8.13732C6.43628 7.89165 6.38437 7.63949 6.12458 7.50064L5.85995 7.35915C5.55495 7.19597 5.9372 6.81329 6.36307 6.85539L6.79954 6.89853C7.12783 6.931 7.50842 6.83666 7.78895 6.65332L8.20124 6.38389Z" fill="url(#paint0_linear_2011_25752)"/>
</g>
<path d="M8.73242 6.33984C8.79807 6.36151 8.8386 6.39512 8.85449 6.43066C8.86902 6.46328 8.86797 6.51006 8.82227 6.57324L8.64648 6.81641C8.55244 6.94661 8.516 7.08422 8.54297 7.21094C8.57002 7.33795 8.65936 7.44544 8.79785 7.51953L9.06543 7.66309C9.13027 7.69779 9.15014 7.73803 9.15039 7.77441C9.15059 7.81468 9.12732 7.86467 9.07715 7.91504C8.97668 8.01565 8.78851 8.09584 8.58984 8.07617L8.14746 8.03223C7.81153 7.9989 7.42377 8.09457 7.13477 8.28027L6.71484 8.5498C6.54227 8.66076 6.34062 8.6748 6.21094 8.63086C6.1461 8.60887 6.10622 8.57551 6.09082 8.54004C6.07678 8.50729 6.07761 8.45964 6.12402 8.39648L6.29395 8.16602C6.38998 8.03538 6.42852 7.89714 6.40234 7.76953C6.37598 7.64149 6.28689 7.53255 6.14746 7.45801L5.88281 7.31641C5.81793 7.28169 5.7981 7.24145 5.79785 7.20508C5.79768 7.16481 5.82088 7.11483 5.87109 7.06445C5.97159 6.96384 6.15973 6.88368 6.3584 6.90332L6.79492 6.94629C7.13425 6.97983 7.52594 6.88256 7.81543 6.69336L8.22754 6.42383C8.39886 6.31199 8.60142 6.29669 8.73242 6.33984Z" stroke="url(#paint1_linear_2011_25752)" stroke-width="0.0958692"/>
<path d="M4.34473 0.735352C6.13856 -0.101421 8.19155 -0.191297 10.0518 0.485352C11.9119 1.16214 13.4279 2.55076 14.2646 4.34473C15.1015 6.13859 15.1911 8.19154 14.5146 10.0518C13.8379 11.9119 12.4492 13.4279 10.6553 14.2646C8.86141 15.1015 6.80837 15.1912 4.94824 14.5146C3.63207 14.0357 2.48938 13.2 1.63672 12.1172C1.69382 12.1499 1.75268 12.1816 1.81348 12.2119C2.35553 12.4821 3.01676 12.6536 3.76172 12.7197C4.23267 13.0572 4.7507 13.3326 5.30469 13.5342C6.90499 14.1164 8.67157 14.0393 10.2148 13.3193C11.758 12.5994 12.952 11.2956 13.5342 9.69531C13.7926 8.98505 13.9209 8.24185 13.9209 7.5V7.37598L13.8545 7.48047C13.6156 7.85691 13.3157 8.23289 12.9609 8.59961C12.378 9.20187 11.6573 9.76824 10.8408 10.2656C10.0241 10.763 9.12759 11.1821 8.20215 11.498C7.27661 11.8142 6.34071 12.021 5.44824 12.1074C4.55577 12.1939 3.72436 12.1577 3.00195 12.002C2.27946 11.846 1.68102 11.5737 1.23926 11.2021C0.981376 10.9852 0.793202 10.7261 0.650391 10.4492L0.642578 10.4326C0.622041 10.3916 0.602011 10.3504 0.583984 10.3086L0.53418 10.1816C-0.110898 8.50587 -0.131523 6.64656 0.486328 4.94824C1.16311 3.08797 2.55078 1.57221 4.34473 0.735352ZM9.69531 1.46582C8.09512 0.883659 6.3293 0.960946 4.78613 1.68066C3.24286 2.4006 2.04805 3.70433 1.46582 5.30469C1.20853 6.01193 1.042 6.67897 0.999023 7.33691L1.06543 7.3584C1.30193 6.9898 1.59661 6.62203 1.94434 6.2627C2.52737 5.66029 3.24772 5.0932 4.06445 4.5957C4.88109 4.09828 5.77778 3.67935 6.70312 3.36328C7.62862 3.04722 8.56477 2.8403 9.45703 2.75391C9.99547 2.70178 10.5118 2.69405 10.9951 2.73047C11.1276 2.84455 11.2559 2.96381 11.3789 3.08887C11.654 3.36867 11.9002 3.67406 12.1182 3.99805C11.9844 3.95407 11.8401 3.91265 11.6836 3.87891C11.0858 3.74995 10.3649 3.71385 9.55762 3.79199C8.75265 3.86991 7.89652 4.05841 7.04102 4.35059C6.18587 4.64265 5.35784 5.02927 4.60742 5.48633C3.85626 5.94388 3.20784 6.45683 2.69434 6.9873C2.17872 7.5201 1.82669 8.04214 1.62695 8.5127C1.42812 8.98088 1.39497 9.3602 1.44824 9.64746C1.4668 9.7473 1.49761 9.84506 1.54199 9.93945C1.67356 10.2127 1.92884 10.477 2.35156 10.6875C2.85526 10.9387 3.56777 11.1013 4.46191 11.1084C5.35018 11.1155 6.34938 10.9681 7.375 10.665C8.38792 10.3657 9.3791 9.92716 10.2676 9.38965L10.2695 9.39258L10.2988 9.37402C11.0499 8.91642 11.6984 8.40445 12.2119 7.87402C12.7275 7.34135 13.0786 6.81902 13.2783 6.34863C13.4769 5.88065 13.5111 5.50199 13.458 5.21484V5.21387C13.4447 5.14288 13.4317 5.05604 13.4053 4.97949H13.4062L13.4043 4.97754L13.3193 4.78516C12.5994 3.24196 11.2956 2.04801 9.69531 1.46582Z" fill="url(#paint2_linear_2011_25752)" stroke="url(#paint3_linear_2011_25752)" stroke-width="0.0719019"/>
<defs>
<filter id="filter0_i_2011_25752" x="5.75" y="6.26953" width="3.44727" height="3.39155" filterUnits="userSpaceOnUse" color-interpolation-filters="sRGB">
<feFlood flood-opacity="0" result="BackgroundImageFix"/>
<feBlend mode="normal" in="SourceGraphic" in2="BackgroundImageFix" result="shape"/>
<feColorMatrix in="SourceAlpha" type="matrix" values="0 0 0 0 0 0 0 0 0 0 0 0 0 0 0 0 0 0 127 0" result="hardAlpha"/>
<feOffset dy="0.958692"/>
<feGaussianBlur stdDeviation="0.719019"/>
<feComposite in2="hardAlpha" operator="arithmetic" k2="-1" k3="1"/>
<feColorMatrix type="matrix" values="0 0 0 0 1 0 0 0 0 1 0 0 0 0 1 0 0 0 0.6 0"/>
<feBlend mode="normal" in2="shape" result="effect1_innerShadow_2011_25752"/>
</filter>
<linearGradient id="paint0_linear_2011_25752" x1="4.67021" y1="4.46248" x2="7.52699" y2="9.83217" gradientUnits="userSpaceOnUse">
<stop stop-color="#856220"/>
<stop offset="0.275" stop-color="#F4E683"/>
<stop offset="0.5" stop-color="#BF923D"/>
<stop offset="0.75" stop-color="#4E341B"/>
<stop offset="1" stop-color="#F1EA82"/>
</linearGradient>
<linearGradient id="paint1_linear_2011_25752" x1="7.47407" y1="6.26953" x2="7.47407" y2="8.34759" gradientUnits="userSpaceOnUse">
<stop stop-color="white" stop-opacity="0.53"/>
<stop offset="1" stop-color="white" stop-opacity="0"/>
</linearGradient>
<linearGradient id="paint2_linear_2011_25752" x1="2" y1="2.625" x2="13.998" y2="13.9977" gradientUnits="userSpaceOnUse">
<stop stop-color="#856220"/>
<stop offset="0.275" stop-color="#ADA35C"/>
<stop offset="0.5" stop-color="#BF923D"/>
<stop offset="0.75" stop-color="#4E341B"/>
<stop offset="1" stop-color="#F1EA82"/>
</linearGradient>
<linearGradient id="paint3_linear_2011_25752" x1="7.5" y1="0" x2="7.5" y2="12.8125" gradientUnits="userSpaceOnUse">
<stop stop-color="white" stop-opacity="0.53"/>
<stop offset="1" stop-color="white" stop-opacity="0"/>
</linearGradient>
</defs>
</svg>
