<svg width="36" height="36" viewBox="0 0 36 36" fill="none" xmlns="http://www.w3.org/2000/svg">
<path d="M19.6825 15.3212C20.5602 14.7477 21.7705 15.1464 21.267 15.8432L20.8445 16.4277C20.4205 17.0143 20.5481 17.6138 21.1673 17.9449L21.811 18.289C22.543 18.6805 21.6256 19.5989 20.6036 19.4978L19.5406 19.3928C18.7608 19.3157 17.8573 19.5366 17.1852 19.9687L16.1772 20.6168C15.2935 21.185 14.0946 20.7789 14.6052 20.0842L15.0128 19.5296C15.4463 18.9399 15.3217 18.3346 14.6982 18.0012L14.0631 17.6617C13.331 17.2703 14.2484 16.3518 15.2705 16.4528L16.3181 16.5564C17.106 16.6343 18.0195 16.4079 18.6929 15.9679L19.6825 15.3212Z" fill="#3B3632"/>
<path fill-rule="evenodd" clip-rule="evenodd" d="M10.3905 1.68756C14.7168 -0.330583 19.6677 -0.547471 24.1539 1.08463C28.6401 2.71674 32.2943 6.06422 34.3124 10.3905C36.3306 14.7168 36.5475 19.6677 34.9154 24.1539C33.2833 28.6401 29.9358 32.2943 25.6095 34.3124C21.2832 36.3306 16.3323 36.5475 11.8461 34.9154C8.52271 33.7063 5.65599 31.5558 3.57268 28.7635C3.82759 28.9309 4.10031 29.0875 4.39102 29.2324C5.68534 29.8774 7.2678 30.2868 9.0562 30.4435C10.1858 31.2555 11.4304 31.9168 12.7609 32.4009C16.5802 33.7904 20.7951 33.6058 24.4783 31.8876C28.1615 30.1694 31.0114 27.0585 32.4009 23.2391C33.0178 21.5434 33.3244 19.7697 33.3243 17.9992C32.7472 18.9081 32.0241 19.8143 31.1686 20.6982C29.7635 22.1499 28.0286 23.5134 26.0629 24.7107C24.0973 25.908 21.9394 26.9158 19.7124 27.6764C17.4855 28.4369 15.2331 28.9354 13.0839 29.1435C10.9347 29.3515 8.93078 29.265 7.18655 28.8889C5.44218 28.5127 3.99182 27.8542 2.91816 26.9512C2.27623 26.4113 1.80883 25.7666 1.45946 25.0784L1.46326 25.0767C1.3633 24.8775 1.2755 24.6739 1.19987 24.4665L1.2014 24.4659C-0.354321 20.4245 -0.405373 15.9417 1.08462 11.8461C2.71674 7.35988 6.06421 3.70572 10.3905 1.68756ZM23.2391 3.59911C19.4198 2.20962 15.2049 2.39424 11.5217 4.11239C7.83845 5.83055 4.98861 8.94153 3.5991 12.7609C2.98335 14.4534 2.58569 16.0453 2.48322 17.6139C3.0545 16.7233 3.76573 15.8357 4.60419 14.9694C6.0093 13.5176 7.74423 12.1541 9.70987 10.9568C11.6755 9.75952 13.8334 8.75183 16.0604 7.99126C18.2873 7.23069 20.5397 6.7321 22.6889 6.52406C23.9968 6.39745 25.251 6.3799 26.4255 6.47037C26.7522 6.75086 27.0676 7.04544 27.3705 7.35351C28.094 8.0894 28.7395 8.89464 29.2985 9.75605C28.9161 9.61774 28.4913 9.49544 28.0222 9.39428C26.5975 9.08704 24.8768 9.00045 22.9467 9.18728C21.0218 9.37362 18.973 9.82392 16.9252 10.5233C14.8783 11.2224 12.8975 12.1481 11.1018 13.2419C9.30394 14.337 7.75361 15.5627 6.5268 16.8302C5.29489 18.103 4.45779 19.3468 3.98344 20.4638C3.5113 21.5757 3.43517 22.468 3.55933 23.1374C3.60258 23.3704 3.67375 23.5971 3.77711 23.8169C4.08289 24.4523 4.68034 25.0738 5.68177 25.5728C6.87584 26.1679 8.5719 26.5577 10.7087 26.5749C12.8309 26.592 15.2204 26.2392 17.6749 25.5139C20.1261 24.7895 22.5259 23.728 24.6699 22.4222L24.6717 22.4251C26.4692 21.3301 28.0193 20.1047 29.246 18.8373C30.4779 17.5645 31.315 16.3208 31.7894 15.2037C32.2615 14.0918 32.3376 13.1995 32.2135 12.5302C32.1807 12.3538 32.1527 12.1554 32.092 11.9793C32.0265 11.8259 31.9583 11.6733 31.8876 11.5217C30.1694 7.83845 27.0585 4.98861 23.2391 3.59911Z" fill="#3B3632"/>
</svg>
