<svg width="106" height="104" viewBox="0 0 106 104" fill="none" xmlns="http://www.w3.org/2000/svg">
<rect width="105.04" height="103.8" rx="51.9" fill="white"/>
<path fill-rule="evenodd" clip-rule="evenodd" d="M46.0317 59.818L64.9927 45.5368C65.922 44.8345 67.2506 45.1081 67.695 46.1955C70.0242 51.9327 68.9832 58.8251 64.3439 63.5572C59.707 68.2893 53.252 69.3258 47.3531 66.9622L40.91 70.0064C50.1528 76.4507 61.3755 74.8572 68.389 67.6984C73.9528 62.0218 75.6759 54.2842 74.0645 47.3071L74.0787 47.3241C71.7425 37.0751 74.6539 32.9775 80.6146 24.6006C80.7572 24.402 80.8998 24.2034 81.04 24L73.1946 32.004V31.9797L46.0246 59.8228M42.1173 63.2884C35.4817 56.8223 36.6272 46.8179 42.2861 41.0468C46.4714 36.7773 53.3304 35.0336 59.3173 37.5958L65.7462 34.5686C64.4099 33.567 62.9479 32.7525 61.3992 32.1468C57.5057 30.523 53.228 30.1087 49.104 30.9558C44.98 31.803 41.1939 33.8739 38.222 36.908C32.2019 43.0496 30.3077 52.4945 33.559 60.5542C35.9879 66.5771 32.007 70.837 27.9976 75.1381C26.5739 76.6638 25.1479 78.1871 24 79.8L42.1102 63.2956" fill="black"/>
</svg>
