<svg width="997" height="228" viewBox="0 0 997 228" fill="none" xmlns="http://www.w3.org/2000/svg" xmlns:xlink="http://www.w3.org/1999/xlink">
 <path d="M344.689 197.349V156.231H359.15V150.7H324.296V156.231H338.691V197.349H344.689Z" fill="#081D34">
 </path>
 <path d="M374.77 197.349V179.823C374.77 174.025 378.835 169.893 384.166 169.893C388.965 169.893 392.43 173.358 392.43 178.556V197.349H397.828V178.556C397.828 170.159 392.43 164.695 385.099 164.695C380.035 164.695 376.303 167.827 374.836 170.226H374.77V150.7H369.305V197.349H374.77Z" fill="#081D34">
 </path>
 <path d="M425.026 198.016C431.691 198.016 436.156 194.684 438.355 191.818L434.69 188.419C432.757 190.485 429.758 192.818 425.293 192.818C419.495 192.818 415.03 188.553 414.364 183.355H439.821C439.888 182.821 440.021 181.822 440.021 180.689C440.021 171.359 433.357 164.695 424.693 164.695C415.963 164.695 408.699 171.892 408.699 181.355C408.699 190.685 416.03 198.016 425.026 198.016ZM414.297 178.823C415.23 173.691 419.162 169.693 424.693 169.693C430.025 169.693 433.557 173.358 434.423 178.823H414.297Z" fill="#081D34">
 </path>
 <path d="M504.612 197.349V191.818H477.489V175.891H498.615V170.359H477.489V156.231H503.946V150.7H471.491V197.349H504.612Z" fill="#081D34">
 </path>
 <path d="M521.896 197.349V179.823C521.896 174.025 525.961 169.893 531.292 169.893C536.09 169.893 539.556 173.358 539.556 178.556V197.349H544.954V178.556C544.954 170.159 539.556 164.695 532.225 164.695C527.16 164.695 523.428 167.827 521.962 170.226H521.896V165.361H516.431V197.349H521.896Z" fill="#081D34">
 </path>
 <path d="M570.827 211.344C580.091 211.344 586.621 204.347 586.621 194.884V165.361H581.157V170.226H581.09C579.624 167.894 575.626 164.695 570.294 164.695C562.497 164.695 555.833 171.359 555.833 180.689C555.833 190.019 562.497 196.683 570.294 196.683C575.026 196.683 579.158 194.151 581.09 191.152H581.157V194.884C581.157 201.548 577.092 206.146 570.827 206.146C566.362 206.146 562.43 203.281 560.964 201.148L557.099 204.68C559.032 207.546 564.43 211.344 570.827 211.344ZM571.16 191.485C565.762 191.485 561.297 187.02 561.297 180.689C561.297 174.358 565.762 169.893 571.16 169.893C576.758 169.893 581.157 174.358 581.157 180.689C581.157 187.02 576.758 191.485 571.16 191.485Z" fill="#081D34">
 </path>
 <path d="M611.817 164.695C606.02 164.695 601.954 167.894 599.622 170.693L603.154 174.091C605.153 171.892 607.886 169.693 611.817 169.693C616.216 169.693 619.281 172.692 619.281 176.757V176.89L607.952 178.756C601.488 179.823 597.823 183.555 597.823 188.819C597.823 193.684 602.221 198.016 608.619 198.016C613.95 198.016 617.949 194.884 619.415 192.485H619.481V197.349H624.746V177.157C624.746 169.893 619.481 164.695 611.817 164.695ZM609.418 193.218C605.62 193.218 603.287 190.952 603.287 188.353C603.287 185.887 605.153 183.821 609.285 183.088L619.281 181.355V183.155C619.281 188.886 614.95 193.218 609.418 193.218Z" fill="#081D34">
 </path>
 <path d="M650.577 211.344C659.84 211.344 666.371 204.347 666.371 194.884V165.361H660.906V170.226H660.84C659.374 167.894 655.375 164.695 650.044 164.695C642.246 164.695 635.582 171.359 635.582 180.689C635.582 190.019 642.246 196.683 650.044 196.683C654.775 196.683 658.907 194.151 660.84 191.152H660.906V194.884C660.906 201.548 656.841 206.146 650.577 206.146C646.112 206.146 642.18 203.281 640.714 201.148L636.848 204.68C638.781 207.546 644.179 211.344 650.577 211.344ZM650.91 191.485C645.512 191.485 641.047 187.02 641.047 180.689C641.047 174.358 645.512 169.893 650.91 169.893C656.508 169.893 660.906 174.358 660.906 180.689C660.906 187.02 656.508 191.485 650.91 191.485Z" fill="#081D34">
 </path>
 <path d="M693.899 198.016C700.564 198.016 705.029 194.684 707.228 191.818L703.563 188.419C701.63 190.485 698.631 192.818 694.166 192.818C688.368 192.818 683.903 188.553 683.237 183.355H708.694C708.761 182.821 708.894 181.822 708.894 180.689C708.894 171.359 702.23 164.695 693.566 164.695C684.836 164.695 677.572 171.892 677.572 181.355C677.572 190.685 684.903 198.016 693.899 198.016ZM683.17 178.823C684.103 173.691 688.035 169.693 693.566 169.693C698.898 169.693 702.43 173.358 703.296 178.823H683.17Z" fill="#081D34">
 </path>
 <path d="M725.272 197.349V179.556C725.272 173.558 728.937 169.893 733.602 169.893C737.667 169.893 740.999 173.025 740.999 178.356V197.349H746.464V179.556C746.464 173.558 750.129 169.893 754.794 169.893C758.926 169.893 762.258 173.025 762.258 178.356V197.349H767.656V178.356C767.656 170.026 762.325 164.695 755.927 164.695C749.996 164.695 746.197 168.094 744.998 170.626H744.865C743.598 168.094 739.933 164.695 734.668 164.695C729.803 164.695 726.471 167.76 725.338 170.093H725.272V165.361H719.807V197.349H725.272Z" fill="#081D34">
 </path>
 <path d="M794.865 198.016C801.529 198.016 805.994 194.684 808.194 191.818L804.528 188.419C802.596 190.485 799.597 192.818 795.132 192.818C789.334 192.818 784.869 188.553 784.202 183.355H809.66C809.726 182.821 809.86 181.822 809.86 180.689C809.86 171.359 803.195 164.695 794.532 164.695C785.802 164.695 778.538 171.892 778.538 181.355C778.538 190.685 785.868 198.016 794.865 198.016ZM784.136 178.823C785.069 173.691 789.001 169.693 794.532 169.693C799.863 169.693 803.395 173.358 804.262 178.823H784.136Z" fill="#081D34">
 </path>
 <path d="M826.237 197.349V179.823C826.237 174.025 830.303 169.893 835.634 169.893C840.432 169.893 843.898 173.358 843.898 178.556V197.349H849.296V178.556C849.296 170.159 843.898 164.695 836.567 164.695C831.502 164.695 827.77 167.827 826.304 170.226H826.237V165.361H820.773V197.349H826.237Z" fill="#081D34">
 </path>
 <path d="M873.852 197.683C875.918 197.683 877.784 197.083 878.65 196.683V191.485C877.85 191.885 876.318 192.485 874.785 192.485C871.786 192.485 869.987 190.685 869.987 187.22V170.559H877.784V165.361H869.987V154.698H865.122V162.029C865.122 164.362 864.122 165.361 862.323 165.361H858.457V170.559H864.522V187.686C864.522 194.217 867.987 197.683 873.852 197.683Z" fill="#081D34">
 </path>
 <path d="M929.973 198.016C943.635 198.016 954.297 187.353 954.297 174.025C954.297 160.696 943.635 150.033 929.973 150.033C916.311 150.033 905.649 160.696 905.649 174.025C905.649 187.353 916.311 198.016 929.973 198.016ZM929.973 192.485C919.71 192.485 911.646 184.354 911.646 174.025C911.646 163.695 919.71 155.565 929.973 155.565C940.169 155.565 948.3 163.695 948.3 174.025C948.3 184.354 940.169 192.485 929.973 192.485Z" fill="#081D34">
 </path>
 <path d="M980.806 198.016C990.869 198.016 997 191.885 997 184.554C997 167.694 971.876 173.891 971.876 162.829C971.876 158.897 975.208 155.565 981.472 155.565C986.204 155.565 989.736 158.031 991.602 159.83L995.667 155.898C993.201 153.299 988.203 150.033 981.472 150.033C971.809 150.033 965.878 155.898 965.878 162.829C965.878 179.689 991.002 173.492 991.002 184.554C991.002 188.886 987.47 192.485 980.806 192.485C974.875 192.485 970.943 189.552 968.677 187.02L964.545 191.018C967.211 194.217 972.876 198.016 980.806 198.016Z" fill="#081D34">
 </path>
 <path d="M197.946 125.463C197.946 127.496 197.145 129.445 195.719 130.882C194.293 132.319 192.359 133.127 190.342 133.127C188.325 133.127 186.391 132.319 184.965 130.882C183.539 129.445 182.738 127.496 182.738 125.463V57.0003C182.738 54.9679 183.539 53.0187 184.965 51.5816C186.391 50.1444 188.325 49.337 190.342 49.337C192.359 49.337 194.293 50.1444 195.719 51.5816C197.145 53.0187 197.946 54.9679 197.946 57.0003V125.463ZM195.306 172.9C194.301 173.913 166.023 197.663 114.18 197.663C62.3372 197.663 34.2477 174.04 33.0538 173.026C32.3014 172.387 31.6816 171.604 31.23 170.723C30.7784 169.841 30.5038 168.879 30.4221 167.89C30.3404 166.902 30.453 165.907 30.7537 164.962C31.0543 164.018 31.537 163.142 32.174 162.386V162.386C33.4864 160.856 35.3459 159.911 37.3471 159.756C39.3483 159.602 41.3288 160.252 42.8568 161.563C43.2967 161.88 68.5583 182.526 114.117 182.526C159.676 182.526 185.126 161.753 185.378 161.563C186.923 160.263 188.91 159.622 190.916 159.776C192.923 159.93 194.791 160.866 196.123 162.386C197.405 163.894 198.045 165.851 197.904 167.831C197.763 169.811 196.852 171.656 195.369 172.963L195.306 172.9ZM30.3517 57.0003C30.4653 54.9615 31.3752 53.0508 32.8824 51.6861C34.3896 50.3213 36.3716 49.6134 38.3952 49.717C40.2711 49.8244 42.0412 50.628 43.364 51.9729C44.6869 53.3178 45.4688 55.1088 45.5589 57.0003V125.337C45.5589 127.369 44.7578 129.318 43.3319 130.755C41.9059 132.193 39.9719 133 37.9553 133C35.9387 133 34.0047 132.193 32.5787 130.755C31.1528 129.318 30.3517 127.369 30.3517 125.337V57.0003ZM68.4955 41.8004C68.6091 39.7615 69.519 37.8509 71.0262 36.4862C72.5334 35.1214 74.5154 34.4135 76.539 34.5171C78.4149 34.6245 80.185 35.4281 81.5078 36.773C82.8307 38.1179 83.6126 39.9088 83.7027 41.8004V143.133C83.7027 145.166 82.9016 147.115 81.4757 148.552C80.0497 149.989 78.1157 150.796 76.0991 150.796C74.0825 150.796 72.1485 149.989 70.7225 148.552C69.2966 147.115 68.4955 145.166 68.4955 143.133V41.8004ZM106.828 38.0004C106.828 35.968 107.629 34.0188 109.055 32.5817C110.481 31.1445 112.415 30.3371 114.431 30.3371C116.448 30.3371 118.382 31.1445 119.808 32.5817C121.234 34.0188 122.035 35.968 122.035 38.0004V148.2C122.035 150.232 121.234 152.181 119.808 153.619C118.382 155.056 116.448 155.863 114.431 155.863C112.415 155.863 110.481 155.056 109.055 153.619C107.629 152.181 106.828 150.232 106.828 148.2V38.0004ZM144.532 41.8004C144.532 39.768 145.333 37.8188 146.759 36.3816C148.185 34.9445 150.119 34.1371 152.135 34.1371C154.152 34.1371 156.086 34.9445 157.512 36.3816C158.938 37.8188 159.739 39.768 159.739 41.8004V143.133C159.739 145.166 158.938 147.115 157.512 148.552C156.086 149.989 154.152 150.796 152.135 150.796C150.119 150.796 148.185 149.989 146.759 148.552C145.333 147.115 144.532 145.166 144.532 143.133V41.8004ZM200.019 0.00063243H28.5921C24.8568 -0.024391 21.1533 0.693392 17.6937 2.11288C14.234 3.53237 11.0861 5.6257 8.43022 8.27299C5.77436 10.9203 3.66268 14.0695 2.2161 17.5405C0.769518 21.0114 0.0164457 24.7358 0 28.5005L0 199.5C0.0164457 203.264 0.769518 206.989 2.2161 210.46C3.66268 213.93 5.77436 217.08 8.43022 219.727C11.0861 222.374 14.234 224.468 17.6937 225.887C21.1533 227.307 24.8568 228.024 28.5921 227.999H200.019C203.749 228.024 207.448 227.309 210.903 225.893C214.359 224.478 217.504 222.39 220.159 219.749C222.814 217.109 224.927 213.967 226.377 210.503C227.828 207.04 228.587 203.322 228.611 199.563V199.563V28.5005C228.595 24.7412 227.844 21.022 226.401 17.5552C224.959 14.0884 222.853 10.942 220.203 8.29549C217.554 5.64903 214.414 3.55438 210.961 2.13115C207.509 0.707912 203.812 -0.0160384 200.082 0.00063243V0.00063243" fill="#081D34">
 </path>
 <path d="M343.101 37.6028C343.101 32.8463 339.432 28.9435 334.296 28.9435C329.16 28.9435 325.491 32.8463 325.491 37.6028V107.853C325.491 112.609 329.16 116.512 334.296 116.512C339.554 116.512 343.101 112.609 343.101 107.853V37.6028Z" fill="#081D34">
 </path>
 <path d="M429.808 28.9435C424.672 28.9435 421.125 32.8463 421.125 37.6028V67.6054L421.614 94.437L410.975 69.3129L397.034 40.7738C392.754 31.8706 387.862 28.9435 380.892 28.9435C370.62 28.9435 366.095 35.4075 366.095 44.6766V107.853C366.095 112.609 369.641 116.512 374.778 116.512C379.914 116.512 383.46 112.609 383.46 107.853L383.338 78.2161L382.971 47.8476L394.344 75.6549L408.407 104.682C412.81 113.951 417.457 116.634 424.549 116.634C433.721 116.634 438.49 111.024 438.49 100.657V37.6028C438.49 32.8463 434.944 28.9435 429.808 28.9435Z" fill="#081D34">
 </path>
 <path d="M503.419 46.8719L523.352 47.3598C527.999 47.4817 531.668 43.9448 531.668 38.8224C531.668 33.7001 527.999 30.1632 523.352 30.1632L465.631 30.0412C461.107 30.0412 457.316 33.5781 457.316 38.7005C457.316 43.8229 461.107 47.3598 465.631 47.2378L485.687 46.8719V107.853C485.687 112.609 489.355 116.512 494.492 116.512C499.75 116.512 503.419 112.609 503.419 107.853V46.8719Z" fill="#081D34">
 </path>
 <path d="M562.512 115.414H605.435C609.96 115.414 613.629 111.999 613.629 107.243C613.629 102.364 609.96 98.9496 605.435 98.9496L568.137 99.0715V78.7039H600.421C604.824 78.7039 608.37 75.411 608.37 70.8984C608.37 66.2638 604.824 62.9709 600.421 62.9709L568.137 63.2148V46.3841H605.435C609.96 46.3841 613.629 42.9691 613.629 38.0907C613.629 33.2122 609.96 29.9192 605.435 29.9192L562.634 30.0412C554.807 30.0412 550.405 34.4318 550.405 42.2374V103.218C550.405 111.024 554.807 115.414 562.512 115.414Z" fill="#081D34">
 </path>
 <path d="M683.543 80.6553C695.16 77.6063 702.009 68.5811 702.009 56.6289C702.009 43.335 693.326 30.0412 672.537 30.0412H645.633C637.807 30.0412 633.404 34.4318 633.404 42.2374V107.853C633.404 112.609 637.073 116.512 642.454 116.512C647.712 116.512 651.503 112.609 651.503 107.853L651.381 84.924H666.178L681.219 111.999C683.665 116.146 688.801 117.854 693.571 115.414C698.34 112.853 699.685 107.731 697.117 103.584L683.543 80.6553ZM651.381 46.2621H672.659C679.874 46.2621 684.399 50.7747 684.399 57.4826C684.399 64.0685 680.119 68.947 672.904 68.947H651.381V46.2621Z" fill="#081D34">
 </path>
 <path d="M756.021 117C773.876 117 785.371 108.95 789.284 95.9005C791.363 88.4609 786.961 83.0945 780.357 83.0945C776.321 83.0945 773.631 85.1679 772.041 89.6805C769.595 96.5103 763.603 100.779 755.043 100.779C741.469 100.779 735.599 91.6319 735.599 72.6058C735.599 53.9457 741.591 45.0425 755.043 45.0425C763.481 45.0425 768.373 48.5794 771.43 56.7508C773.142 61.3854 775.955 63.4587 780.112 63.4587C786.471 63.4587 791.118 58.3363 789.162 51.2625C785.249 36.8711 773.876 28.8216 755.532 28.8216C730.341 28.8216 717.5 44.1888 717.5 72.6058C717.5 101.267 730.341 117 756.021 117Z" fill="#081D34">
 </path>
 <path d="M842.964 116.756C868.89 116.756 881.73 100.901 881.73 72.6058C881.73 44.0668 868.523 28.3337 842.964 28.3337C817.284 28.3337 804.443 44.3107 804.321 72.6058C804.321 101.023 817.406 116.756 842.964 116.756ZM842.964 100.413C828.534 100.413 822.297 91.266 822.297 72.6058C822.297 53.7018 828.657 44.5546 842.842 44.5546C857.15 44.5546 863.876 53.7018 863.754 72.6058C863.754 91.3879 857.395 100.413 842.964 100.413Z" fill="#081D34">
 </path>
 <path d="M995.57 44.1888C995.57 34.5538 989.578 28.8216 980.284 28.8216C972.702 28.8216 966.954 32.9683 964.142 42.4813L954.726 73.0937L948.489 95.1688L942.497 73.0937L932.469 42.4813C929.656 33.5781 924.765 28.8216 916.204 28.8216C906.788 28.8216 900.918 34.4318 900.918 44.1888V107.853C900.918 112.609 904.342 116.512 909.356 116.512C914.37 116.512 917.794 112.609 917.794 107.853L917.672 77.1184L916.816 44.1888L926.477 77.8502L936.749 107.609C938.95 114.195 943.108 116.39 948.489 116.39C953.503 116.39 957.538 114.561 959.617 107.853L969.4 77.8502L979.795 43.9448L978.817 77.1184V107.853C978.817 112.609 982.363 116.512 987.255 116.512C992.268 116.512 995.692 112.609 995.692 107.853L995.57 44.1888Z" fill="#081D34">
 </path>
</svg>