<svg width="1245" height="170" viewBox="0 0 1245 170" fill="none" xmlns="http://www.w3.org/2000/svg">
<g clip-path="url(#clip0_45_2931)">
<mask id="mask0_45_2931" style="mask-type:luminance" maskUnits="userSpaceOnUse" x="0" y="0" width="180" height="134">
<path d="M179.3 0H0V133.74H179.3V0Z" fill="white"/>
</mask>
<g mask="url(#mask0_45_2931)">
<path fill-rule="evenodd" clip-rule="evenodd" d="M122.99 129.94C123.23 132.01 121.56 133.73 119.49 133.73H67.16C65.14 133.73 63.56 132.15 63.56 130.13V57.17C63.56 55.3 62.14 53.73 60.27 53.44C49.25 51.73 13.87 43.07 0.199952 4.76C-0.600048 2.53 1.07995 0.06 3.42995 0H43.0299C75.75 1.43 100.3 22.36 110.18 50.8L110.24 50.74C118.46 74.44 122.06 117.04 122.99 129.94Z" fill="#0C70F2"/>
<path fill-rule="evenodd" clip-rule="evenodd" d="M179.12 4.14C166.23 41.22 139.73 49.82 124.41 53.04C122.77 53.29 121.21 52.31 120.78 50.73C115.9 33.47 109.11 24.01 100.3 15.86C98.8096 14.49 98.8696 12.07 100.59 10.98C110.9 4.16 123.63 0.04 139.52 0.02V0H176.12C178.28 0 179.85 2.13 179.12 4.14Z" fill="#0C70F2"/>
</g>
<path d="M241.76 25.4599V6.1499H343.24V25.4699H303.93V133.35H281.08V25.4599H241.77H241.76Z" fill="#101214"/>
<path d="M348.4 133.34V37.9501H370.2V53.8501H371.19C372.93 48.3401 375.91 44.1001 380.13 41.1201C384.39 38.1001 389.26 36.5901 394.72 36.5901C395.96 36.5901 397.35 36.6501 398.88 36.7801C400.45 36.8601 401.76 37.0101 402.79 37.2201V57.9001C401.84 57.5701 400.33 57.2801 398.26 57.0301C396.23 56.7401 394.26 56.6001 392.36 56.6001C388.26 56.6001 384.58 57.4901 381.31 59.2701C378.08 61.0101 375.53 63.4301 373.67 66.5401C371.81 69.6401 370.87 73.2301 370.87 77.2801V133.36H348.39L348.4 133.34Z" fill="#101214"/>
<path d="M414.24 133.34V37.95H436.72V133.34H414.24ZM425.54 24.41C421.98 24.41 418.91 23.23 416.35 20.87C413.78 18.47 412.5 15.59 412.5 12.24C412.5 8.89001 413.78 5.97001 416.35 3.61001C418.92 1.21001 421.98 0.0100098 425.54 0.0100098C429.1 0.0100098 432.21 1.21001 434.73 3.61001C437.3 5.97001 438.58 8.85001 438.58 12.24C438.58 15.63 437.3 18.47 434.73 20.87C432.2 23.23 429.14 24.41 425.54 24.41Z" fill="#101214"/>
<path d="M456.35 169.11V37.95H478.46V53.72H479.76C480.92 51.4 482.56 48.94 484.67 46.33C486.78 43.68 489.64 41.42 493.24 39.56C496.84 37.66 501.44 36.7 507.03 36.7C514.4 36.7 521.05 38.5799 526.97 42.3499C532.93 46.0799 537.65 51.6 541.13 58.93C544.65 66.22 546.41 75.16 546.41 85.76C546.41 96.36 544.69 105.14 541.25 112.46C537.81 119.79 533.14 125.38 527.21 129.23C521.29 133.08 514.58 135 507.09 135C501.63 135 497.09 134.09 493.49 132.27C489.89 130.45 486.99 128.25 484.79 125.69C482.64 123.08 480.96 120.62 479.76 118.3H478.83V169.1H456.35V169.11ZM478.4 85.6399C478.4 91.8099 479.27 97.2099 481.01 101.85C482.79 106.49 485.34 110.11 488.65 112.72C492 115.29 496.06 116.57 500.82 116.57C505.58 116.57 509.95 115.25 513.3 112.59C516.65 109.9 519.18 106.23 520.88 101.6C522.62 96.9199 523.49 91.5999 523.49 85.6399C523.49 79.6799 522.64 74.46 520.94 69.87C519.24 65.27 516.72 61.67 513.36 59.06C510.01 56.45 505.83 55.15 500.82 55.15C495.81 55.15 491.94 56.4099 488.58 58.9399C485.23 61.4699 482.68 65.0099 480.94 69.5599C479.24 74.1099 478.39 79.4799 478.39 85.6399H478.4Z" fill="#101214"/>
<path d="M584.63 6.1499V133.34H562.15V6.1499H584.63Z" fill="#101214"/>
<path d="M646.49 135.2C636.93 135.2 628.67 133.21 621.71 129.24C614.8 125.22 609.47 119.55 605.75 112.22C602.02 104.85 600.16 96.1799 600.16 86.1999C600.16 76.2199 602.02 67.77 605.75 60.36C609.52 52.91 614.78 47.11 621.53 42.97C628.28 38.79 636.21 36.7 645.32 36.7C651.2 36.7 656.75 37.65 661.96 39.56C667.22 41.42 671.85 44.3199 675.87 48.2599C679.93 52.1899 683.11 57.2 685.43 63.29C687.75 69.34 688.91 76.54 688.91 84.9V91.79H610.72V76.6399H667.36C667.32 72.3299 666.39 68.5 664.57 65.15C662.75 61.76 660.2 59.0799 656.93 57.1399C653.7 55.1899 649.93 54.22 645.63 54.22C641.03 54.22 637 55.34 633.52 57.57C630.04 59.77 627.33 62.6599 625.38 66.2699C623.48 69.8299 622.5 73.74 622.46 78.01V91.2399C622.46 96.7899 623.47 101.55 625.5 105.52C627.53 109.45 630.36 112.48 634.01 114.59C637.65 116.66 641.92 117.69 646.8 117.69C650.07 117.69 653.03 117.23 655.68 116.32C658.33 115.37 660.63 113.98 662.57 112.16C664.52 110.34 665.99 108.08 666.98 105.39L687.97 107.75C686.65 113.3 684.12 118.14 680.39 122.28C676.71 126.38 671.99 129.57 666.23 131.84C660.48 134.08 653.89 135.19 646.48 135.19L646.49 135.2Z" fill="#101214"/>
<path d="M772.07 133.34L736.17 6.1499H760.95L783.87 99.6199H785.05L809.52 6.1499H832.06L856.59 99.6799H857.71L880.63 6.1499H905.41L869.51 133.34H846.78L821.32 44.0999H820.33L794.8 133.34H772.07Z" fill="#101214"/>
<path d="M939.37 77.4399V133.33H916.89V6.1499H938.88V54.1599H940C942.24 48.7799 945.69 44.5299 950.37 41.4299C955.09 38.2799 961.09 36.7099 968.38 36.7099C975.01 36.7099 980.78 38.0999 985.71 40.8699C990.64 43.6399 994.45 47.6999 997.14 53.0399C999.87 58.3799 1001.24 64.8999 1001.24 72.5999V133.34H978.76V76.0799C978.76 69.6599 977.1 64.6699 973.79 61.1099C970.52 57.5099 965.92 55.7099 960 55.7099C956.02 55.7099 952.47 56.5799 949.32 58.3199C946.22 60.0199 943.77 62.4799 941.99 65.7099C940.25 68.9399 939.38 72.8499 939.38 77.4499L939.37 77.4399Z" fill="#101214"/>
<path d="M1048.1 135.26C1042.06 135.26 1036.61 134.18 1031.77 132.03C1026.97 129.83 1023.16 126.61 1020.34 122.34C1017.57 118.08 1016.18 112.82 1016.18 106.57C1016.18 101.19 1017.17 96.74 1019.16 93.22C1021.15 89.7 1023.86 86.89 1027.3 84.77C1030.74 82.65 1034.61 81.06 1038.91 79.99C1043.26 78.87 1047.75 78.06 1052.39 77.57C1057.98 76.99 1062.51 76.47 1065.99 76.02C1069.47 75.52 1071.99 74.78 1073.57 73.78C1075.18 72.75 1075.99 71.15 1075.99 69V68.63C1075.99 63.95 1074.6 60.33 1071.83 57.76C1069.06 55.19 1065.06 53.91 1059.84 53.91C1054.33 53.91 1049.97 55.11 1046.74 57.51C1043.55 59.91 1041.4 62.75 1040.28 66.02L1019.29 63.04C1020.95 57.24 1023.68 52.4 1027.49 48.51C1031.3 44.58 1035.96 41.64 1041.46 39.69C1046.97 37.7 1053.05 36.71 1059.72 36.71C1064.32 36.71 1068.89 37.25 1073.44 38.32C1077.99 39.4 1082.16 41.18 1085.92 43.66C1089.69 46.1 1092.71 49.44 1094.99 53.66C1097.31 57.88 1098.47 63.16 1098.47 69.5V133.34H1076.86V120.24H1076.11C1074.74 122.89 1072.82 125.37 1070.33 127.69C1067.89 129.97 1064.8 131.81 1061.08 133.22C1057.4 134.59 1053.07 135.27 1048.1 135.27V135.26ZM1053.94 118.74C1058.45 118.74 1062.37 117.85 1065.68 116.07C1068.99 114.25 1071.54 111.85 1073.32 108.87C1075.14 105.89 1076.05 102.64 1076.05 99.12V87.88C1075.35 88.46 1074.15 89 1072.45 89.5C1070.79 90 1068.93 90.43 1066.86 90.8C1064.79 91.17 1062.74 91.5 1060.71 91.79C1058.68 92.08 1056.92 92.33 1055.43 92.54C1052.08 92.99 1049.07 93.74 1046.43 94.77C1043.78 95.81 1041.69 97.25 1040.16 99.12C1038.63 100.94 1037.86 103.3 1037.86 106.2C1037.86 110.34 1039.37 113.47 1042.39 115.58C1045.41 117.69 1049.26 118.75 1053.94 118.75V118.74Z" fill="#101214"/>
<path d="M1140.06 6.1499V133.34H1117.58V6.1499H1140.06Z" fill="#101214"/>
<path d="M1201.91 135.2C1192.35 135.2 1184.09 133.21 1177.14 129.24C1170.22 125.22 1164.9 119.55 1161.17 112.22C1157.44 104.85 1155.58 96.1799 1155.58 86.1999C1155.58 76.2199 1157.44 67.77 1161.17 60.36C1164.94 52.91 1170.2 47.11 1176.95 42.97C1183.69 38.79 1191.62 36.7 1200.73 36.7C1206.61 36.7 1212.16 37.65 1217.37 39.56C1222.63 41.42 1227.26 44.3199 1231.28 48.2599C1235.33 52.1899 1238.52 57.2 1240.83 63.29C1243.15 69.34 1244.32 76.54 1244.32 84.9V91.79H1166.13V76.6399H1222.77C1222.73 72.3299 1221.8 68.5 1219.97 65.15C1218.15 61.76 1215.61 59.0799 1212.34 57.1399C1209.11 55.1899 1205.34 54.22 1201.03 54.22C1196.43 54.22 1192.4 55.34 1188.92 57.57C1185.44 59.77 1182.74 62.6599 1180.79 66.2699C1178.88 69.8299 1177.91 73.74 1177.86 78.01V91.2399C1177.86 96.7899 1178.87 101.55 1180.9 105.52C1182.93 109.45 1185.76 112.48 1189.41 114.59C1193.05 116.66 1197.32 117.69 1202.21 117.69C1205.48 117.69 1208.44 117.23 1211.09 116.32C1213.74 115.37 1216.04 113.98 1217.98 112.16C1219.93 110.34 1221.4 108.08 1222.39 105.39L1243.38 107.75C1242.05 113.3 1239.53 118.14 1235.8 122.28C1232.11 126.38 1227.4 129.57 1221.64 131.84C1215.89 134.08 1209.3 135.19 1201.89 135.19L1201.91 135.2Z" fill="#101214"/>
</g>
<defs>
<clipPath id="clip0_45_2931">
<rect width="1244.33" height="169.11" fill="white"/>
</clipPath>
</defs>
</svg>
