<svg width="45" height="45" viewBox="0 0 45 45" fill="none" xmlns="http://www.w3.org/2000/svg">
<path d="M22.2168 0C34.4864 0.000185543 44.4326 9.9471 44.4326 22.2168C44.4324 34.4863 34.4863 44.4324 22.2168 44.4326C9.9471 44.4326 0.000185555 34.4864 0 22.2168C0 9.94699 9.94699 0 22.2168 0ZM21.8457 27.7773C15.9224 27.7773 11.1201 31.2183 11.1201 35.4629C11.1201 39.7075 15.9223 43.1484 21.8457 43.1484C27.769 43.1484 32.5713 39.7075 32.5713 35.4629C32.5713 31.2183 27.769 27.7774 21.8457 27.7773ZM35.8574 11.2695C31.8314 11.2698 28.5675 15.8167 28.5674 21.4258C28.5674 27.0351 31.8313 31.5827 35.8574 31.583C39.8837 31.583 43.1475 27.0352 43.1475 21.4258C43.1473 15.8165 39.8836 11.2695 35.8574 11.2695ZM26.4844 4.34082C22.2111 -0.0738139 13.7431 1.19112 7.57031 7.16602C1.39757 13.1412 -0.14242 21.5638 4.13086 25.9785C8.40422 30.3932 16.8722 29.1284 23.0449 23.1533C29.2177 17.1782 30.7577 8.75554 26.4844 4.34082Z" fill="black"/>
</svg>
