<svg width="19" height="24" viewBox="0 0 19 24" fill="none" xmlns="http://www.w3.org/2000/svg">
<g filter="url(#filter0_i_8496_2518)">
<path d="M10.2011 7.38386C10.5669 7.14487 11.0712 7.31098 10.8612 7.60132L10.6853 7.84488C10.5088 8.08932 10.5619 8.33905 10.8199 8.47709L11.0881 8.6204C11.3929 8.78358 11.0108 9.16628 10.585 9.12412L10.1421 9.08033C9.81715 9.0481 9.44074 9.14033 9.16061 9.32033L8.74066 9.59033C8.37243 9.82709 7.8729 9.65783 8.08566 9.36837L8.2555 9.13729C8.4361 8.89162 8.38419 8.63946 8.12439 8.50061L7.85977 8.35912C7.55477 8.19594 7.93702 7.81326 8.36289 7.85536L8.79936 7.8985C9.12765 7.93097 9.50823 7.83663 9.78877 7.65329L10.2011 7.38386Z" fill="url(#paint0_linear_8496_2518)"/>
</g>
<path d="M10.7322 7.33981C10.7979 7.36147 10.8384 7.39509 10.8543 7.43063C10.8688 7.46325 10.8678 7.51003 10.8221 7.57321L10.6463 7.81638C10.5523 7.94658 10.5158 8.08419 10.5428 8.21091C10.5698 8.33792 10.6592 8.44541 10.7977 8.5195L11.0652 8.66306C11.1301 8.69776 11.15 8.738 11.1502 8.77438C11.1504 8.81465 11.1271 8.86463 11.077 8.91501C10.9765 9.01562 10.7883 9.09581 10.5897 9.07614L10.1473 9.0322C9.81134 8.99887 9.42358 9.09454 9.13458 9.28024L8.71466 9.54977C8.54209 9.66073 8.34043 9.67477 8.21075 9.63083C8.14592 9.60884 8.10603 9.57548 8.09064 9.54001C8.0766 9.50726 8.07742 9.45961 8.12384 9.39645L8.29376 9.16599C8.3898 9.03535 8.42834 8.89711 8.40216 8.7695C8.3758 8.64146 8.2867 8.53252 8.14728 8.45798L7.88263 8.31638C7.81775 8.28166 7.79792 8.24142 7.79767 8.20505C7.7975 8.16478 7.8207 8.11479 7.87091 8.06442C7.9714 7.96381 8.15954 7.88365 8.35822 7.90329L8.79474 7.94626C9.13407 7.9798 9.52575 7.88253 9.81525 7.69333L10.2274 7.4238C10.3987 7.31196 10.6012 7.29666 10.7322 7.33981Z" stroke="url(#paint1_linear_8496_2518)" stroke-width="0.0958692"/>
<g filter="url(#filter1_dddd_8496_2518)">
<path fill-rule="evenodd" clip-rule="evenodd" d="M6.3296 1.70316C8.13219 0.862266 10.195 0.77188 12.0643 1.45193C13.9334 2.13197 15.456 3.52677 16.2968 5.32938C17.1378 7.13201 17.228 9.19485 16.5482 11.0642C15.8681 12.9333 14.4733 14.456 12.6708 15.2968C10.8682 16.1378 8.80529 16.228 6.93607 15.5482C5.55136 15.0442 4.35692 14.1483 3.4889 12.9848C3.59509 13.0545 3.70873 13.1198 3.82986 13.1802C4.36914 13.449 5.0285 13.6194 5.77364 13.6847C6.24432 14.0232 6.76284 14.2987 7.31722 14.5004C8.90857 15.0793 10.6648 15.0025 12.1995 14.2865C13.7341 13.5706 14.9215 12.2743 15.5004 10.6829C15.7574 9.97647 15.8851 9.23742 15.8851 8.49959C15.6447 8.87844 15.3433 9.25587 14.987 9.62418C14.4016 10.229 13.6786 10.7972 12.8597 11.2961C12.0406 11.7949 11.1416 12.2149 10.2136 12.5317C9.28569 12.8488 8.3473 13.0563 7.45182 13.1431C6.55636 13.2299 5.72138 13.1938 4.99464 13.0371C4.26783 12.8802 3.66352 12.6059 3.21617 12.2297C2.94871 12.0047 2.75398 11.7361 2.6084 11.4493L2.60998 11.4487C2.56832 11.3656 2.53176 11.2809 2.50024 11.1943C1.85205 9.51046 1.83139 7.64236 2.45222 5.93587C3.13225 4.06663 4.527 2.54405 6.3296 1.70316ZM11.683 2.49963C10.0916 1.92068 8.33552 1.9976 6.80089 2.71349C5.26626 3.42939 4.07885 4.72563 3.49989 6.31703C3.24333 7.02225 3.07764 7.68553 3.03496 8.33905C3.27299 7.96804 3.56933 7.59821 3.91868 7.23724C4.50411 6.63235 5.227 6.06422 6.046 5.56535C6.865 5.06648 7.76411 4.6466 8.69198 4.32969C9.61994 4.01279 10.5584 3.80504 11.4538 3.71836C11.9988 3.6656 12.5214 3.65828 13.0107 3.69598C13.1469 3.81286 13.2782 3.9356 13.4045 4.06397C13.7059 4.37058 13.9749 4.70609 14.2078 5.06502C14.0485 5.00739 13.8713 4.95643 13.6759 4.91429C13.0824 4.78626 12.3655 4.75018 11.5612 4.82804C10.7591 4.90567 9.90554 5.09329 9.0523 5.38472C8.19945 5.676 7.37416 6.06172 6.62594 6.51748C5.87687 6.97376 5.23091 7.48445 4.71974 8.01257C4.20645 8.54296 3.85767 9.06107 3.66004 9.52668C3.46332 9.98985 3.4316 10.3616 3.48333 10.6405C3.50135 10.7376 3.531 10.8321 3.57407 10.9237C3.70147 11.1884 3.9504 11.4475 4.36766 11.6553C4.86518 11.9034 5.57185 12.0657 6.46216 12.0728C7.34641 12.0799 8.34201 11.933 9.36474 11.6307C10.3859 11.3289 11.3858 10.8866 12.2791 10.3426L12.2799 10.3438C13.0289 9.88749 13.6747 9.37688 14.1859 8.84884C14.6992 8.31857 15.048 7.80034 15.2456 7.3349C15.4422 6.8716 15.4741 6.49978 15.4224 6.22091C15.4086 6.14741 15.397 6.06472 15.3717 5.99135C15.3443 5.92745 15.316 5.86387 15.2866 5.80068C14.5706 4.26602 13.2744 3.07859 11.683 2.49963Z" fill="url(#paint2_linear_8496_2518)"/>
<path d="M6.34473 1.73535C8.13856 0.898579 10.1915 0.808702 12.0518 1.48535C13.9119 2.16214 15.4279 3.55076 16.2646 5.34473C17.1015 7.13859 17.1911 9.19154 16.5146 11.0518C15.8379 12.9119 14.4492 14.4279 12.6553 15.2646C10.8614 16.1015 8.80837 16.1912 6.94824 15.5146C5.63207 15.0357 4.48938 14.2 3.63672 13.1172C3.69382 13.1499 3.75268 13.1816 3.81348 13.2119C4.35553 13.4821 5.01676 13.6536 5.76172 13.7197C6.23267 14.0572 6.7507 14.3326 7.30469 14.5342C8.90499 15.1164 10.6716 15.0393 12.2148 14.3193C13.758 13.5994 14.952 12.2956 15.5342 10.6953C15.7926 9.98505 15.9209 9.24185 15.9209 8.5V8.37598L15.8545 8.48047C15.6156 8.85691 15.3157 9.23289 14.9609 9.59961C14.378 10.2019 13.6573 10.7682 12.8408 11.2656C12.0241 11.763 11.1276 12.1821 10.2021 12.498C9.27661 12.8142 8.34071 13.021 7.44824 13.1074C6.55577 13.1939 5.72436 13.1577 5.00195 13.002C4.27946 12.846 3.68102 12.5737 3.23926 12.2021C2.98138 11.9852 2.7932 11.7261 2.65039 11.4492L2.64258 11.4326C2.62204 11.3916 2.60201 11.3504 2.58398 11.3086L2.53418 11.1816C1.8891 9.50587 1.86848 7.64656 2.48633 5.94824C3.16311 4.08797 4.55078 2.57221 6.34473 1.73535ZM11.6953 2.46582C10.0951 1.88366 8.32929 1.96095 6.78613 2.68066C5.24286 3.4006 4.04805 4.70433 3.46582 6.30469C3.20853 7.01193 3.042 7.67897 2.99902 8.33691L3.06543 8.3584C3.30193 7.9898 3.59661 7.62203 3.94434 7.2627C4.52737 6.66029 5.24772 6.0932 6.06445 5.5957C6.88109 5.09828 7.77778 4.67935 8.70312 4.36328C9.62862 4.04722 10.5648 3.8403 11.457 3.75391C11.9955 3.70178 12.5118 3.69405 12.9951 3.73047C13.1276 3.84455 13.2559 3.96381 13.3789 4.08887C13.654 4.36867 13.9002 4.67406 14.1182 4.99805C13.9844 4.95407 13.8401 4.91265 13.6836 4.87891C13.0858 4.74995 12.3649 4.71385 11.5576 4.79199C10.7527 4.86991 9.89652 5.05841 9.04102 5.35059C8.18587 5.64265 7.35784 6.02927 6.60742 6.48633C5.85626 6.94389 5.20784 7.45683 4.69434 7.9873C4.17872 8.5201 3.82669 9.04214 3.62695 9.5127C3.42812 9.98088 3.39497 10.3602 3.44824 10.6475C3.4668 10.7473 3.49761 10.8451 3.54199 10.9395C3.67356 11.2127 3.92884 11.477 4.35156 11.6875C4.85526 11.9387 5.56777 12.1013 6.46191 12.1084C7.35018 12.1155 8.34938 11.9681 9.375 11.665C10.3879 11.3657 11.3791 10.9272 12.2676 10.3896L12.2695 10.3926L12.2988 10.374C13.0499 9.91642 13.6984 9.40445 14.2119 8.87402C14.7275 8.34135 15.0786 7.81902 15.2783 7.34863C15.477 6.88037 15.5112 6.50108 15.458 6.21387C15.4447 6.14288 15.4317 6.05604 15.4053 5.97949H15.4062L15.4043 5.97754L15.3193 5.78516C14.5994 4.24196 13.2956 3.04801 11.6953 2.46582Z" stroke="url(#paint3_linear_8496_2518)" stroke-width="0.0719019"/>
</g>
<defs>
<filter id="filter0_i_8496_2518" x="7.74982" y="7.2695" width="3.44815" height="3.39155" filterUnits="userSpaceOnUse" color-interpolation-filters="sRGB">
<feFlood flood-opacity="0" result="BackgroundImageFix"/>
<feBlend mode="normal" in="SourceGraphic" in2="BackgroundImageFix" result="shape"/>
<feColorMatrix in="SourceAlpha" type="matrix" values="0 0 0 0 0 0 0 0 0 0 0 0 0 0 0 0 0 0 127 0" result="hardAlpha"/>
<feOffset dy="0.958692"/>
<feGaussianBlur stdDeviation="0.719019"/>
<feComposite in2="hardAlpha" operator="arithmetic" k2="-1" k3="1"/>
<feColorMatrix type="matrix" values="0 0 0 0 1 0 0 0 0 1 0 0 0 0 1 0 0 0 0.6 0"/>
<feBlend mode="normal" in2="shape" result="effect1_innerShadow_8496_2518"/>
</filter>
<filter id="filter1_dddd_8496_2518" x="0" y="0" width="19" height="24" filterUnits="userSpaceOnUse" color-interpolation-filters="sRGB">
<feFlood flood-opacity="0" result="BackgroundImageFix"/>
<feColorMatrix in="SourceAlpha" type="matrix" values="0 0 0 0 0 0 0 0 0 0 0 0 0 0 0 0 0 0 127 0" result="hardAlpha"/>
<feOffset/>
<feGaussianBlur stdDeviation="0.5"/>
<feColorMatrix type="matrix" values="0 0 0 0 0 0 0 0 0 0 0 0 0 0 0 0 0 0 0.1 0"/>
<feBlend mode="normal" in2="BackgroundImageFix" result="effect1_dropShadow_8496_2518"/>
<feColorMatrix in="SourceAlpha" type="matrix" values="0 0 0 0 0 0 0 0 0 0 0 0 0 0 0 0 0 0 127 0" result="hardAlpha"/>
<feOffset dy="1"/>
<feGaussianBlur stdDeviation="0.5"/>
<feColorMatrix type="matrix" values="0 0 0 0 0 0 0 0 0 0 0 0 0 0 0 0 0 0 0.09 0"/>
<feBlend mode="normal" in2="effect1_dropShadow_8496_2518" result="effect2_dropShadow_8496_2518"/>
<feColorMatrix in="SourceAlpha" type="matrix" values="0 0 0 0 0 0 0 0 0 0 0 0 0 0 0 0 0 0 127 0" result="hardAlpha"/>
<feOffset dy="3"/>
<feGaussianBlur stdDeviation="1"/>
<feColorMatrix type="matrix" values="0 0 0 0 0 0 0 0 0 0 0 0 0 0 0 0 0 0 0.05 0"/>
<feBlend mode="normal" in2="effect2_dropShadow_8496_2518" result="effect3_dropShadow_8496_2518"/>
<feColorMatrix in="SourceAlpha" type="matrix" values="0 0 0 0 0 0 0 0 0 0 0 0 0 0 0 0 0 0 127 0" result="hardAlpha"/>
<feOffset dy="6"/>
<feGaussianBlur stdDeviation="1"/>
<feColorMatrix type="matrix" values="0 0 0 0 0 0 0 0 0 0 0 0 0 0 0 0 0 0 0.01 0"/>
<feBlend mode="normal" in2="effect3_dropShadow_8496_2518" result="effect4_dropShadow_8496_2518"/>
<feBlend mode="normal" in="SourceGraphic" in2="effect4_dropShadow_8496_2518" result="shape"/>
</filter>
<linearGradient id="paint0_linear_8496_2518" x1="6.67003" y1="5.46245" x2="9.5268" y2="10.8321" gradientUnits="userSpaceOnUse">
<stop stop-color="#856220"/>
<stop offset="0.275" stop-color="#F4E683"/>
<stop offset="0.5" stop-color="#BF923D"/>
<stop offset="0.75" stop-color="#4E341B"/>
<stop offset="1" stop-color="#F1EA82"/>
</linearGradient>
<linearGradient id="paint1_linear_8496_2518" x1="9.47389" y1="7.2695" x2="9.47389" y2="9.34756" gradientUnits="userSpaceOnUse">
<stop stop-color="white" stop-opacity="0.53"/>
<stop offset="1" stop-color="white" stop-opacity="0"/>
</linearGradient>
<linearGradient id="paint2_linear_8496_2518" x1="4" y1="3.625" x2="15.998" y2="14.9977" gradientUnits="userSpaceOnUse">
<stop stop-color="#856220"/>
<stop offset="0.275" stop-color="#ADA35C"/>
<stop offset="0.5" stop-color="#BF923D"/>
<stop offset="0.75" stop-color="#4E341B"/>
<stop offset="1" stop-color="#F1EA82"/>
</linearGradient>
<linearGradient id="paint3_linear_8496_2518" x1="9.5" y1="1" x2="9.5" y2="13.8125" gradientUnits="userSpaceOnUse">
<stop stop-color="white" stop-opacity="0.53"/>
<stop offset="1" stop-color="white" stop-opacity="0"/>
</linearGradient>
</defs>
</svg>
