<svg width="2020" height="2022" viewBox="0 0 2020 2022" fill="none" xmlns="http://www.w3.org/2000/svg">
<rect width="2020" height="2022" fill="black"/>
<path d="M1051.58 968.937C1069.63 957.147 1094.51 965.342 1084.15 979.665L1075.47 991.681C1066.76 1003.74 1069.38 1016.06 1082.11 1022.87L1095.34 1029.94C1110.38 1037.99 1091.53 1056.87 1070.52 1054.79L1048.67 1052.63C1032.64 1051.04 1014.07 1055.59 1000.25 1064.47L979.532 1077.79C961.366 1089.47 936.722 1081.12 947.218 1066.84L955.597 1055.44C964.507 1043.32 961.946 1030.88 949.129 1024.03L936.074 1017.05C921.027 1009 939.885 990.121 960.895 992.198L982.428 994.326C998.624 995.928 1017.4 991.274 1031.24 982.229L1051.58 968.937Z" fill="white"/>
<path fill-rule="evenodd" clip-rule="evenodd" d="M860.583 688.689C949.513 647.205 1051.28 642.746 1143.5 676.295C1235.71 709.844 1310.83 778.654 1352.31 867.583C1393.8 956.513 1398.25 1058.28 1364.71 1150.5C1331.16 1242.71 1262.35 1317.83 1173.42 1359.31C1084.49 1400.8 982.72 1405.25 890.503 1371.71C822.189 1346.85 763.262 1302.65 720.439 1245.25C725.678 1248.69 731.284 1251.91 737.26 1254.89C763.865 1268.15 796.394 1276.56 833.155 1279.78C856.376 1296.48 881.957 1310.07 909.307 1320.02C987.815 1348.58 1074.46 1344.79 1150.17 1309.47C1225.88 1274.15 1284.46 1210.2 1313.02 1131.69C1325.7 1096.84 1332 1060.38 1332 1023.98C1320.14 1042.67 1305.27 1061.29 1287.69 1079.46C1258.81 1109.3 1223.14 1137.33 1182.74 1161.94C1142.33 1186.55 1097.98 1207.27 1052.2 1222.9C1006.42 1238.54 960.125 1248.78 915.947 1253.06C871.77 1257.34 830.577 1255.56 794.724 1247.83C758.867 1240.09 729.054 1226.56 706.984 1208C693.789 1196.9 684.182 1183.65 677 1169.5L677.078 1169.47C675.023 1165.37 673.219 1161.19 671.664 1156.92L671.695 1156.91C639.717 1073.84 638.667 981.69 669.295 897.503C702.844 805.287 771.653 730.173 860.583 688.689ZM1124.69 727.982C1046.18 699.42 959.544 703.215 883.834 738.532C808.124 773.85 749.544 837.798 720.981 916.307C708.324 951.098 700.15 983.82 698.044 1016.06C709.787 997.757 724.407 979.512 741.642 961.704C770.524 931.863 806.187 903.835 846.592 879.224C886.997 854.613 931.354 833.899 977.13 818.265C1022.91 802.631 1069.21 792.382 1113.38 788.106C1140.27 785.503 1166.05 785.142 1190.19 787.002C1196.91 792.768 1203.39 798.823 1209.62 805.156C1224.49 820.282 1237.76 836.834 1249.25 854.541C1241.39 851.698 1232.65 849.184 1223.01 847.105C1193.73 840.789 1158.36 839.009 1118.68 842.85C1079.11 846.68 1037 855.936 994.906 870.313C952.831 884.683 912.116 903.712 875.203 926.196C838.248 948.706 806.38 973.9 781.162 999.954C755.839 1026.12 738.632 1051.68 728.882 1074.65C719.177 1097.5 717.612 1115.84 720.164 1129.6C721.053 1134.39 722.516 1139.05 724.641 1143.57C730.926 1156.63 743.207 1169.41 763.792 1179.66C788.337 1191.9 823.2 1199.91 867.123 1200.26C910.747 1200.61 959.864 1193.36 1010.32 1178.45C1060.7 1163.56 1110.03 1141.74 1154.1 1114.9L1154.14 1114.96C1191.09 1092.45 1222.95 1067.26 1248.17 1041.21C1273.49 1015.05 1290.7 989.484 1300.45 966.522C1310.15 943.666 1311.72 925.323 1309.17 911.565C1308.49 907.939 1307.92 903.86 1306.67 900.24C1305.32 897.088 1303.92 893.951 1302.47 890.834C1267.15 815.124 1203.2 756.544 1124.69 727.982Z" fill="white"/>
</svg>
