<svg width="15" height="15" viewBox="0 0 15 15" fill="none" xmlns="http://www.w3.org/2000/svg">
<path d="M8.20094 6.38383C8.56682 6.14484 9.07114 6.31095 8.86114 6.60128L8.68519 6.84485C8.50864 7.08929 8.56175 7.33902 8.81979 7.47706L9.08796 7.62037C9.39283 7.78355 9.01074 8.16625 8.58486 8.12409L8.14195 8.0803C7.81702 8.04807 7.4406 8.1403 7.16047 8.3203L6.74051 8.5903C6.37228 8.82706 5.87274 8.6578 6.0855 8.36834L6.25534 8.13726C6.43595 7.89159 6.38404 7.63943 6.12423 7.50058L5.8596 7.35909C5.5546 7.19591 5.93685 6.81323 6.36273 6.85533L6.79921 6.89847C7.12751 6.93094 7.5081 6.8366 7.78864 6.65326L8.20094 6.38383Z" fill="#2C2C2C"/>
<path fill-rule="evenodd" clip-rule="evenodd" d="M4.32938 0.703157C6.13201 -0.137734 8.19486 -0.22812 10.0642 0.451926C11.9333 1.13197 13.456 2.52677 14.2968 4.32938C15.1378 6.13201 15.228 8.19486 14.5482 10.0642C13.8681 11.9333 12.4733 13.456 10.6707 14.2968C8.86803 15.1378 6.80513 15.228 4.93587 14.5482C3.55113 14.0442 2.35666 13.1483 1.48863 11.9848C1.59482 12.0545 1.70846 12.1198 1.82959 12.1802C2.36888 12.449 3.02826 12.6194 3.77341 12.6847C4.2441 13.0232 4.76264 13.2987 5.31703 13.5004C6.90841 14.0793 8.66472 14.0025 10.1994 13.2865C11.734 12.5706 12.9215 11.2743 13.5004 9.68289C13.7574 8.97648 13.8851 8.23742 13.8851 7.49959C13.6447 7.87844 13.3433 8.25587 12.9869 8.62418C12.4015 9.22904 11.6785 9.79722 10.8596 10.2961C10.0405 10.7949 9.14148 11.2149 8.2135 11.5317C7.28553 11.8488 6.34712 12.0563 5.45162 12.1431C4.55615 12.2299 3.72115 12.1938 2.9944 12.0371C2.26757 11.8802 1.66326 11.6059 1.21589 11.2297C0.948426 11.0047 0.75369 10.7361 0.608109 10.4493L0.60969 10.4487C0.568035 10.3656 0.531467 10.2809 0.499947 10.1943L0.500575 10.1941C-0.147626 8.51026 -0.168911 6.64236 0.451926 4.93587C1.13197 3.06663 2.52675 1.54405 4.32938 0.703157ZM9.68289 1.49963C8.09148 0.920676 6.33534 0.997601 4.80068 1.71349C3.26602 2.42939 2.07859 3.72563 1.49961 5.31703C1.24305 6.02225 1.07737 6.68553 1.03468 7.33905C1.27271 6.96804 1.56906 6.59821 1.91842 6.23724C2.50386 5.63235 3.22676 5.06422 4.04578 4.56535C4.8648 4.06648 5.76393 3.6466 6.69182 3.32969C7.61979 3.01279 8.5583 2.80504 9.45364 2.71836C9.99871 2.6656 10.5213 2.65828 11.0106 2.69599C11.1468 2.81286 11.2782 2.9356 11.4044 3.06397C11.7059 3.37058 11.9749 3.70609 12.2078 4.06502C12.0484 4.00739 11.8713 3.95643 11.6759 3.91429C11.0824 3.78626 10.3654 3.75018 9.56107 3.82804C8.75898 3.90567 7.9054 4.09329 7.05214 4.38472C6.19927 4.676 5.37397 5.06172 4.62573 5.51748C3.87665 5.97376 3.23067 6.48445 2.7195 7.01257C2.20619 7.54296 1.85741 8.06107 1.65977 8.52668C1.46305 8.98986 1.43132 9.36161 1.48305 9.64053C1.50107 9.73762 1.53073 9.83208 1.5738 9.9237C1.7012 10.1884 1.95014 10.4475 2.3674 10.6553C2.86494 10.9034 3.57162 11.0657 4.46195 11.0728C5.34622 11.0799 6.34183 10.933 7.36459 10.6307C8.3858 10.3289 9.38573 9.88661 10.279 9.34256L10.2799 9.34377C11.0288 8.88749 11.6747 8.37688 12.1859 7.84884C12.6991 7.31857 13.048 6.80034 13.2456 6.3349C13.4422 5.8716 13.474 5.49978 13.4223 5.22091C13.4086 5.14741 13.397 5.06472 13.3717 4.99135C13.3443 4.92745 13.3159 4.86387 13.2865 4.80068C12.5706 3.26602 11.2743 2.07859 9.68289 1.49963Z" fill="#2C2C2C"/>
</svg>
